grf																																													
version=1																																													
nRows=13																																													
nColumns=46																																													
inDegrees=yes																																													
endheader																																													
time	f1_1	f1_2	f1_3	p1_1	p1_2	p1_3	m1_1	m1_2	m1_3	f2_1	f2_2	f2_3	p2_1	p2_2	p2_3	m2_1	m2_2	m2_3	f3_1	f3_2	f3_3	p3_1	p3_2	p3_3	m3_1	m3_2	m3_3	f4_1	f4_2	f4_3	p4_1	p4_2	p4_3	m4_1	m4_2	m4_3	f5_1	f5_2	f5_3	p5_1	p5_2	p5_3	m5_1	m5_2	m5_3
6.55	3.700263977	-2.025566578	17.49669456	200	-920	0	807.6165161	-292.5612488	-1436.149902	-1.803680658	-3.152997494	14.73459339	200	-320	0	1929.100098	629.5965576	-1090.7771	-22.56171547	372.2492336	696.197998	200	300	0	67583.82337	-20113.75144	6037.768066	-3.582134232	3.025297572	29.89154816	200	900.0000153	0	-1509.899337	296.3317093	777.8208008	6.614945412	-387.6087646	728.9641724	200	1500	0	-34442.95313	2134.791016	4743.662598
6.551	3.214140415	-1.216104031	18.75547791	200	-920	0	1088.020264	-264.3643799	-1256.066895	-1.160016298	-3.150962353	17.9193058	200	-320	0	1908.46875	696.562439	-948.9365845	-22.72258497	371.6033596	696.8314819	200	300	0	67678.21399	-20104.34322	6056.786621	-3.905764063	2.861703277	30.53436279	200	900.0000153	0	-1518.129809	312.9922915	681.4414063	6.454241753	-387.769989	727.0551758	200	1500	0	-34697.91016	1987.083496	4717.92627
6.552	3.862591743	-1.542265892	16.86746216	200	-920	0	1071.327393	-368.6216125	-1384.217407	-1.319451451	-3.314380646	18.23069382	200	-320	0	1971.762329	593.3386841	-949.184082	-22.88345833	371.2814296	696.829834	200	300	0	67788.33899	-20090.79047	6101.994141	-3.905764186	3.668454528	28.29343033	200	900.0000153	0	-1418.457939	350.8575716	739.7235718	6.452715874	-385.8415527	726.0924072	200	1500	0	-34911.21875	2488.278809	4525.022461
6.553	3.214140415	-1.703649044	18.43800163	200	-920	0	1491.923584	-364.0497742	-1468.686401	-1.321143985	-4.118244171	16.64289856	200	-320	0	1850.740845	845.8569946	-1058.748657	-22.88346041	372.4093593	698.4071045	200	300	0	67904.15149	-20056.86467	5837.945801	-4.391981611	3.184811876	30.21480751	200	900.0000153	0	-1563.671322	374.7129572	753.0407715	5.487985611	-387.1271973	725.1387939	200	1500	0	-34789.33594	2343.501465	4653.320801
6.554	4.187246799	-1.542265892	17.8065033	200	-920	0	1506.945313	-46.5533371	-1319.286377	-1.000581145	-2.829213142	16.63944244	200	-320	0	1794.271606	761.6586304	-1045.152954	-21.75734845	372.5718351	697.7750244	200	300	0	68167.66711	-20019.38221	5941.280762	-3.580590306	3.505880763	28.29579544	200	900.0000153	0	-1797.761769	328.7576603	616.6520386	6.132326126	-384.7167969	723.8592529	200	1500	0	-34796.82031	2697.705322	4698.925781
6.555	4.024060249	-1.701102257	16.55246353	200	-920	0	1006.895752	-189.9262848	-1319.98584	-0.998888612	-3.798530579	15.68974304	200	-320	0	1673.973145	877.6767578	-1071.394287	-21.91822387	373.2166715	699.3522949	200	300	0	68016.89364	-19849.39591	5999.175781	-4.065262926	3.989523267	28.93928337	200	900.0000153	0	-2019.378982	499.6631135	604.260498	6.293539047	-385.0378723	722.5883789	200	1500	0	-34691.69531	2458.501953	4769.699707
6.556	3.379044533	-1.218650341	15.6060791	200	-920	0	1211.410278	-337.3162842	-1145.214844	-0.999734938	-2.83023119	15.04722595	200	-320	0	2145.008789	615.4622803	-1019.47998	-21.11386065	373.3778044	699.3562012	200	300	0	68132.13588	-20167.01503	5883.317871	-3.422636115	3.666415646	28.92716408	200	900.0000153	0	-1542.743545	94.44578663	759.0478516	6.614945412	-384.555603	723.8632202	200	1500	0	-34300.71875	2367.243652	4724.761719
6.557	3.377326965	-1.218650341	17.49484634	200	-920	0	1091.137085	-46.04629898	-1274.732422	-1.321143985	-2.668847561	13.79087543	200	-320	0	1505.008423	598.2646484	-1000.283569	-21.43560358	372.8941007	697.4606934	200	300	0	68249.6046	-19992.14978	5966.963867	-3.582134256	3.185832431	28.93860054	200	900.0000153	0	-1685.911573	484.9051383	758.5563965	6.453732491	-384.555603	722.5876465	200	1500	0	-34545.94922	2528.570313	4692.517578
6.558	2.892061949	-1.059813976	16.54719734	200	-920	0	1160.839966	-133.2746887	-1339.13501	-1.321143985	-3.634094238	17.59378052	200	-320	0	1824.12085	671.4217529	-1000.64978	-20.79211568	373.0552337	697.4610596	200	300	0	68246.58119	-20165.45446	5947.624512	-3.746265971	3.666415597	27.97555923	200	900.0000153	0	-1480.268369	380.3776123	759.3571167	7.098074913	-383.9131165	719.7143555	200	1500	0	-34454.89453	2535.534912	4718.617676
6.559	3.214999199	-1.541417122	15.60383987	200	-920	0	1325.324951	-108.8557816	-1345.930054	-1.803680658	-2.509499788	14.42099476	200	-320	0	1879.690918	813.7651978	-1090.532837	-21.43560371	373.7011076	700.9338379	200	300	0	68471.51866	-19962.44271	6089.482422	-2.934874947	2.704228907	28.30184555	200	900.0000153	0	-1829.881806	600.9328263	815.7310791	6.776667595	-384.0733032	718.1199341	200	1500	0	-34769.9375	2511.075439	4840.732422
6.56	3.214999199	-0.896732807	15.29243946	200	-920	0	1044.156372	-297.4137268	-1307.096191	-1.640860558	-2.668847561	13.14399529	200	-320	0	2173.029785	705.4590454	-871.8890381	-20.79211382	373.3781707	700.3046265	200	300	0	68063.90151	-20226.59316	5922.02832	-3.583678707	3.021217753	27.97118378	200	900.0000153	0	-1634.359908	292.7329965	687.9438477	6.937880516	-383.9131165	717.4851074	200	1500	0	-33904.99219	2430.241943	4815.141602
6.561	3.376467943	-1.218650341	13.71891212	200	-920	0	847.59729	-270.678009	-1339.491699	-1.802834392	-2.348116159	13.7790699	200	-320	0	2031.166016	797.7017822	-1006.883972	-19.98774869	373.5389374	700.3039551	200	300	0	68574.42495	-20235.36457	5767.459961	-3.744720994	3.50690117	29.902668	200	900.0000153	0	-2231.422675	443.4396009	752.5454102	7.258268356	-382.6271362	718.4424438	200	1500	0	-33782.77344	2453.670654	4660.826172
6.562	4.022342682	-0.896732807	15.60494518	200	-920	0	1108.146729	-150.0548706	-1468.564819	-1.320297718	-2.83023119	15.37187958	200	-320	0	1811.346436	621.140625	-955.3678589	-20.47036893	373.5399749	701.8812256	200	300	0	68393.06555	-20052.31382	6108.81543	-4.066807402	3.989523267	27.65162849	200	900.0000153	0	-1649.508599	353.9214707	668.9867554	7.421010017	-381.9836426	718.4401855	200	1500	0	-34242.23047	2520.543457	4963.4375
